<svg xmlns="http://www.w3.org/2000/svg" width="33.217" height="33.217" viewBox="0 0 33.217 33.217">
  <path id="Path_3" data-name="Path 3" d="M16.608,2.953a50.925,50.925,0,0,1,6.643.185,8.559,8.559,0,0,1,3.137.554,6.481,6.481,0,0,1,3.137,3.137,8.559,8.559,0,0,1,.554,3.137c0,1.661.185,2.214.185,6.643a50.925,50.925,0,0,1-.185,6.643,8.559,8.559,0,0,1-.554,3.137,6.481,6.481,0,0,1-3.137,3.137,8.559,8.559,0,0,1-3.137.554c-1.661,0-2.214.185-6.643.185a50.925,50.925,0,0,1-6.643-.185,8.559,8.559,0,0,1-3.137-.554,6.481,6.481,0,0,1-3.137-3.137,8.559,8.559,0,0,1-.554-3.137c0-1.661-.185-2.214-.185-6.643a50.925,50.925,0,0,1,.185-6.643,8.559,8.559,0,0,1,.554-3.137A6.628,6.628,0,0,1,4.982,4.982,3.12,3.12,0,0,1,6.828,3.691a8.559,8.559,0,0,1,3.137-.554,50.925,50.925,0,0,1,6.643-.185m0-2.953A54.525,54.525,0,0,0,9.78.185a11.393,11.393,0,0,0-4.06.738A7.224,7.224,0,0,0,2.768,2.768,7.224,7.224,0,0,0,.923,5.721,8.408,8.408,0,0,0,.185,9.78,54.525,54.525,0,0,0,0,16.608a54.525,54.525,0,0,0,.185,6.828A11.393,11.393,0,0,0,.923,27.5a7.224,7.224,0,0,0,1.845,2.953,7.224,7.224,0,0,0,2.953,1.845,11.392,11.392,0,0,0,4.06.738,54.526,54.526,0,0,0,6.828.185,54.526,54.526,0,0,0,6.828-.185,11.393,11.393,0,0,0,4.06-.738,7.742,7.742,0,0,0,4.8-4.8,11.392,11.392,0,0,0,.738-4.06c0-1.845.185-2.4.185-6.828a54.526,54.526,0,0,0-.185-6.828,11.393,11.393,0,0,0-.738-4.06,7.224,7.224,0,0,0-1.845-2.953A7.224,7.224,0,0,0,27.5.923a11.393,11.393,0,0,0-4.06-.738A54.525,54.525,0,0,0,16.608,0m0,8.12A8.352,8.352,0,0,0,8.12,16.608,8.489,8.489,0,1,0,16.608,8.12m0,14.025a5.437,5.437,0,0,1-5.536-5.536,5.437,5.437,0,0,1,5.536-5.536,5.437,5.437,0,0,1,5.536,5.536,5.437,5.437,0,0,1-5.536,5.536M25.466,5.721a2.03,2.03,0,1,0,2.03,2.03,2.048,2.048,0,0,0-2.03-2.03" transform="translate(0 0)" fill-rule="evenodd"/>
</svg>
