<svg id="Layer_1" data-name="Layer 1" xmlns="http://www.w3.org/2000/svg" width="648" height="219" viewBox="0 0 648 219"><title>LisbetFriis-logo_RGB</title><path d="M144.85,183.64a11.55,11.55,0,0,1,.77-4.2,10.32,10.32,0,0,1,2.14-3.43,9.92,9.92,0,0,1,3.27-2.3,10.13,10.13,0,0,1,4.15-.85,9.6,9.6,0,0,1,5,1.3,8,8,0,0,1,3.27,3.58l-2,.65a6.73,6.73,0,0,0-2.65-2.72,7.4,7.4,0,0,0-3.77-1,7.68,7.68,0,0,0-3.22.68,8,8,0,0,0-2.61,1.9,9.22,9.22,0,0,0-1.75,2.84,9.83,9.83,0,0,0,1.79,10,8.58,8.58,0,0,0,2.62,2,7.4,7.4,0,0,0,3.21.73,7.26,7.26,0,0,0,2.16-.33,9.74,9.74,0,0,0,2-.84,6.67,6.67,0,0,0,1.57-1.24,3.76,3.76,0,0,0,.91-1.47l2,.57a6.61,6.61,0,0,1-1.23,2,8.42,8.42,0,0,1-2,1.64,10,10,0,0,1-2.5,1.07,10.73,10.73,0,0,1-2.83.38,9.71,9.71,0,0,1-4.11-.87,10,10,0,0,1-3.29-2.38,11.33,11.33,0,0,1-3-7.72Z"/><path d="M178.91,194.61a9.63,9.63,0,0,1-4.1-.87,10,10,0,0,1-3.25-2.36,11.06,11.06,0,0,1-2.14-3.47,11.61,11.61,0,0,1-.76-4.15,11.39,11.39,0,0,1,2.94-7.67,10.33,10.33,0,0,1,3.25-2.36,9.52,9.52,0,0,1,4.06-.87,9.35,9.35,0,0,1,4,.87,10.56,10.56,0,0,1,3.25,2.36,11.09,11.09,0,0,1,2.18,3.47,11.36,11.36,0,0,1,.79,4.2,11.34,11.34,0,0,1-2.95,7.62,9.92,9.92,0,0,1-3.25,2.36A9.5,9.5,0,0,1,178.91,194.61Zm-8.23-10.77a9.45,9.45,0,0,0,.64,3.49,9.13,9.13,0,0,0,1.76,2.84,8.22,8.22,0,0,0,2.6,1.92,7.52,7.52,0,0,0,6.38,0,8.46,8.46,0,0,0,2.62-2,9.39,9.39,0,0,0,1.77-2.88,9.55,9.55,0,0,0,.65-3.53,9.38,9.38,0,0,0-.65-3.49,9.23,9.23,0,0,0-1.77-2.87,9,9,0,0,0-2.6-2,7.15,7.15,0,0,0-3.17-.72,7.24,7.24,0,0,0-3.19.72,8.4,8.4,0,0,0-2.6,2,9.82,9.82,0,0,0-1.78,2.93A9.5,9.5,0,0,0,170.68,183.84Z"/><path d="M196.17,164.75h2.07v25.3a2.58,2.58,0,0,0,.66,1.86,2.45,2.45,0,0,0,1.84.68,6.43,6.43,0,0,0,1.06-.1,5.79,5.79,0,0,0,1.16-.3l.4,1.61a8.19,8.19,0,0,1-1.7.47,10.06,10.06,0,0,1-1.73.18,3.69,3.69,0,0,1-2.72-1,3.73,3.73,0,0,1-1-2.76Z"/><path d="M217.28,194.61a9.63,9.63,0,0,1-4.1-.87,10,10,0,0,1-3.25-2.36,11.06,11.06,0,0,1-2.14-3.47,11.61,11.61,0,0,1-.76-4.15,11.39,11.39,0,0,1,2.94-7.67,10.33,10.33,0,0,1,3.25-2.36,9.52,9.52,0,0,1,4.06-.87,9.35,9.35,0,0,1,4,.87,10.56,10.56,0,0,1,3.25,2.36,11.09,11.09,0,0,1,2.18,3.47,11.36,11.36,0,0,1,.79,4.2,11.34,11.34,0,0,1-2.95,7.62,10,10,0,0,1-3.25,2.36A9.5,9.5,0,0,1,217.28,194.61Zm-8.23-10.77a9.45,9.45,0,0,0,.64,3.49,9.13,9.13,0,0,0,1.76,2.84,8.22,8.22,0,0,0,2.6,1.92,7.52,7.52,0,0,0,6.38,0,8.46,8.46,0,0,0,2.62-2,9.39,9.39,0,0,0,1.77-2.88,9.55,9.55,0,0,0,.65-3.53,9.38,9.38,0,0,0-.65-3.49,9.23,9.23,0,0,0-1.77-2.87,9,9,0,0,0-2.6-2,7.15,7.15,0,0,0-3.17-.72,7.24,7.24,0,0,0-3.19.72,8.4,8.4,0,0,0-2.6,2,9.82,9.82,0,0,0-1.78,2.93A9.5,9.5,0,0,0,209.05,183.84Z"/><path d="M244.31,175a8.27,8.27,0,0,0-7.91,6.05v13.12h-2v-21h1.94v5.16a10.24,10.24,0,0,1,2.88-3.61,7.37,7.37,0,0,1,3.86-1.59,6.49,6.49,0,0,1,.72,0h.53Z"/><path d="M261.13,184.2v-4.08h1.78v4.08Z"/><path d="M293.37,194.61a8.44,8.44,0,0,1-4.82-1.43,11.8,11.8,0,0,1-3.41-3.49V202.8h-2V173.23H285v4.19a10.11,10.11,0,0,1,3.41-3.28,8.63,8.63,0,0,1,4.53-1.28,8.89,8.89,0,0,1,4,.93,10.39,10.39,0,0,1,3.19,2.44,11.24,11.24,0,0,1,2.08,3.49,11.54,11.54,0,0,1,.74,4,12.76,12.76,0,0,1-.68,4.15,10.64,10.64,0,0,1-2,3.47,9.15,9.15,0,0,1-3.05,2.36A8.73,8.73,0,0,1,293.37,194.61Zm-.48-1.81a7.13,7.13,0,0,0,3.3-.77,8,8,0,0,0,2.55-2,9.65,9.65,0,0,0,1.61-2.9,10,10,0,0,0,.57-3.33,9.38,9.38,0,0,0-2.45-6.34,9,9,0,0,0-2.68-2,7.46,7.46,0,0,0-3.27-.74,6.59,6.59,0,0,0-2.32.46,10.22,10.22,0,0,0-2.32,1.25,9,9,0,0,0-1.85,1.8,4.14,4.14,0,0,0-.89,2.14v6.89a9.72,9.72,0,0,0,1.33,2.18,9.89,9.89,0,0,0,1.82,1.78,8.12,8.12,0,0,0,2.18,1.19A7.09,7.09,0,0,0,292.89,192.8Z"/><path d="M315,194.61a7.14,7.14,0,0,1-2.71-.51,7.05,7.05,0,0,1-2.19-1.37,5.92,5.92,0,0,1-1.48-2,6.3,6.3,0,0,1-.52-2.56,5,5,0,0,1,.64-2.51,6.3,6.3,0,0,1,1.8-2,8.69,8.69,0,0,1,2.76-1.28,12.81,12.81,0,0,1,3.55-.47,19.73,19.73,0,0,1,3.41.3,17.75,17.75,0,0,1,3.09.83V181a6.54,6.54,0,0,0-1.7-4.74,6.07,6.07,0,0,0-4.6-1.75,9.18,9.18,0,0,0-3.24.64,16.26,16.26,0,0,0-3.49,1.86l-.77-1.37a13.76,13.76,0,0,1,7.67-2.75,8,8,0,0,1,6,2.2,8.22,8.22,0,0,1,2.18,6.07v10.25c0,.68.3,1,.89,1v1.82l-.42.06-.38,0a1.68,1.68,0,0,1-1.3-.55,2.26,2.26,0,0,1-.56-1.31V190.7a9.49,9.49,0,0,1-3.71,2.9A11.91,11.91,0,0,1,315,194.61Zm.4-1.61a10.34,10.34,0,0,0,4.3-.89,7.33,7.33,0,0,0,3-2.34,2.72,2.72,0,0,0,.65-1.62v-3.71a15.43,15.43,0,0,0-3-.84,18.33,18.33,0,0,0-3.27-.29,11.56,11.56,0,0,0-2.86.34,7.78,7.78,0,0,0-2.22.95,4.38,4.38,0,0,0-1.43,1.48A3.72,3.72,0,0,0,310,188a4.91,4.91,0,0,0,.41,2,4.53,4.53,0,0,0,1.13,1.59,5.12,5.12,0,0,0,1.71,1.05A5.74,5.74,0,0,0,315.4,193Z"/><path d="M342.71,193.2c-.1.05-.29.15-.54.3a5.3,5.3,0,0,1-1,.42,11.57,11.57,0,0,1-1.31.37,7.17,7.17,0,0,1-1.58.16,5.19,5.19,0,0,1-1.59-.24,3.82,3.82,0,0,1-1.31-.73,3.44,3.44,0,0,1-.89-1.17,3.85,3.85,0,0,1-.32-1.61V174.88h-2.95v-1.65h2.95V166h2v7.19h4.88v1.65h-4.88v15.33A2.05,2.05,0,0,0,337,192a3,3,0,0,0,1.82.58,5.14,5.14,0,0,0,2.16-.42c.6-.28,1-.46,1.11-.55Z"/><path d="M357.64,193.2l-.55.3a4.89,4.89,0,0,1-1,.42,11.57,11.57,0,0,1-1.31.37,7.17,7.17,0,0,1-1.58.16,5.14,5.14,0,0,1-1.59-.24,3.73,3.73,0,0,1-1.31-.73,3.31,3.31,0,0,1-.89-1.17,3.7,3.7,0,0,1-.32-1.61V174.88h-2.95v-1.65h2.95V166h2v7.19H356v1.65h-4.89v15.33A2,2,0,0,0,352,192a3,3,0,0,0,1.82.58,5.06,5.06,0,0,0,2.15-.42,10.79,10.79,0,0,0,1.11-.55Z"/><path d="M371.6,194.61a9.79,9.79,0,0,1-4.12-.87,10.1,10.1,0,0,1-3.29-2.38,11.38,11.38,0,0,1-3-7.72,11.19,11.19,0,0,1,2.94-7.61,10.06,10.06,0,0,1,3.25-2.32,9.84,9.84,0,0,1,4.06-.85,9.71,9.71,0,0,1,4.11.87,10.18,10.18,0,0,1,3.27,2.34A10.52,10.52,0,0,1,381,179.5a11.28,11.28,0,0,1,.77,4.14v.5a1.26,1.26,0,0,1,0,.38h-18.4a9.34,9.34,0,0,0,.84,3.37,9.58,9.58,0,0,0,1.84,2.68,8.17,8.17,0,0,0,2.57,1.78,7.52,7.52,0,0,0,3.1.65,7.8,7.8,0,0,0,2.14-.31,8.46,8.46,0,0,0,1.95-.82,7.22,7.22,0,0,0,1.62-1.27A6.09,6.09,0,0,0,378.5,189l1.77.49a6.53,6.53,0,0,1-1.31,2.07,8.74,8.74,0,0,1-2,1.64,10.17,10.17,0,0,1-2.52,1.07A10.6,10.6,0,0,1,371.6,194.61Zm8.23-11.7a9.49,9.49,0,0,0-.83-3.39,9,9,0,0,0-1.81-2.64,8.3,8.3,0,0,0-2.56-1.74,8.11,8.11,0,0,0-6.22,0,8.18,8.18,0,0,0-2.56,1.74,8.37,8.37,0,0,0-1.77,2.66,10.08,10.08,0,0,0-.79,3.37Z"/><path d="M398.15,175a8.45,8.45,0,0,0-4.95,1.68,8.36,8.36,0,0,0-3,4.37v13.12h-2v-21h1.94v5.16a10.14,10.14,0,0,1,2.88-3.61,7.37,7.37,0,0,1,3.86-1.59,6.36,6.36,0,0,1,.72,0h.53Z"/><path d="M421.14,194.21h-2V182.5c0-2.71-.39-4.69-1.15-5.93a4,4,0,0,0-3.66-1.85,7.64,7.64,0,0,0-2.64.48,9.2,9.2,0,0,0-2.44,1.37,10.57,10.57,0,0,0-2,2.08,8.75,8.75,0,0,0-1.25,2.57v13h-2v-21h1.89v5a9.61,9.61,0,0,1,1.6-2.2,10,10,0,0,1,2.13-1.69,10.29,10.29,0,0,1,2.53-1.09,9.7,9.7,0,0,1,2.74-.39q3.44,0,4.84,2.4a13.77,13.77,0,0,1,1.41,6.88Z"/><path d="M441.2,184.2v-4.08H443v4.08Z"/><path d="M494,194.21h-2V182.5q0-4-1.23-5.89a4.19,4.19,0,0,0-3.77-1.89,6.42,6.42,0,0,0-2.46.48,7.89,7.89,0,0,0-2.14,1.35,8.43,8.43,0,0,0-1.67,2.06,10.67,10.67,0,0,0-1.12,2.65v13h-2V182.5c0-2.68-.41-4.65-1.21-5.91a4.17,4.17,0,0,0-3.75-1.87,6.47,6.47,0,0,0-2.45.46,7.18,7.18,0,0,0-2.11,1.34,9.36,9.36,0,0,0-1.72,2,9.89,9.89,0,0,0-1.15,2.65v13h-2v-21h1.9v5a10.32,10.32,0,0,1,3.39-4,8.21,8.21,0,0,1,4.64-1.41,6.07,6.07,0,0,1,4.32,1.57,6.66,6.66,0,0,1,2,4.12q3-5.69,8.23-5.69a5.29,5.29,0,0,1,4.91,2.45,13.25,13.25,0,0,1,1.47,6.83Z"/><path d="M507.28,194.61a7.25,7.25,0,0,1-4.9-1.88,6,6,0,0,1-1.47-2,6.31,6.31,0,0,1-.53-2.56,5,5,0,0,1,.65-2.51,6.38,6.38,0,0,1,1.79-2,8.75,8.75,0,0,1,2.77-1.28,12.81,12.81,0,0,1,3.55-.47,19.73,19.73,0,0,1,3.41.3,17.4,17.4,0,0,1,3.08.83V181a6.53,6.53,0,0,0-1.69-4.74,6.09,6.09,0,0,0-4.6-1.75,9.27,9.27,0,0,0-3.25.64A16.5,16.5,0,0,0,502.6,177l-.77-1.37a13.81,13.81,0,0,1,7.67-2.75,8,8,0,0,1,6,2.2,8.22,8.22,0,0,1,2.18,6.07v10.25c0,.68.3,1,.89,1v1.82l-.42.06-.39,0a1.65,1.65,0,0,1-1.29-.55,2.26,2.26,0,0,1-.56-1.31V190.7a9.49,9.49,0,0,1-3.71,2.9A11.92,11.92,0,0,1,507.28,194.61Zm.41-1.61a10.26,10.26,0,0,0,4.29-.89,7.29,7.29,0,0,0,3-2.34,2.7,2.7,0,0,0,.64-1.62v-3.71a15.15,15.15,0,0,0-3-.84,18.33,18.33,0,0,0-3.27-.29,11.45,11.45,0,0,0-2.86.34,7.66,7.66,0,0,0-2.22.95,4.51,4.51,0,0,0-1.44,1.48,3.81,3.81,0,0,0-.5,1.91,4.9,4.9,0,0,0,.4,2,4.66,4.66,0,0,0,1.13,1.59,5.27,5.27,0,0,0,1.72,1.05A5.71,5.71,0,0,0,507.69,193Z"/><path d="M535,193.2l-.55.3a4.89,4.89,0,0,1-1,.42,11.2,11.2,0,0,1-1.32.37,7.08,7.08,0,0,1-1.57.16,5.19,5.19,0,0,1-1.59-.24,3.73,3.73,0,0,1-1.31-.73,3.31,3.31,0,0,1-.89-1.17,3.7,3.7,0,0,1-.32-1.61V174.88h-3v-1.65h3V166h2v7.19h4.88v1.65h-4.88v15.33a2,2,0,0,0,.8,1.76,3,3,0,0,0,1.82.58,5.06,5.06,0,0,0,2.15-.42c.61-.28,1-.46,1.12-.55Z"/><path d="M549,194.61a9.71,9.71,0,0,1-4.11-.87,9.89,9.89,0,0,1-3.29-2.38,11.12,11.12,0,0,1-2.18-3.49,11.24,11.24,0,0,1-.79-4.23,11,11,0,0,1,.79-4.18,10.74,10.74,0,0,1,2.16-3.43,9.87,9.87,0,0,1,7.3-3.17,9.71,9.71,0,0,1,4.11.87,10.18,10.18,0,0,1,3.27,2.34,10.69,10.69,0,0,1,2.14,3.43,11.27,11.27,0,0,1,.76,4.14v.5a1,1,0,0,1,0,.38H540.69a9.15,9.15,0,0,0,.85,3.37,9.35,9.35,0,0,0,1.83,2.68,8.13,8.13,0,0,0,2.56,1.78A7.57,7.57,0,0,0,549,193a7.74,7.74,0,0,0,2.14-.31,8.72,8.72,0,0,0,2-.82,7.4,7.4,0,0,0,1.61-1.27,6.09,6.09,0,0,0,1.11-1.64l1.77.49a6.53,6.53,0,0,1-1.31,2.07,8.9,8.9,0,0,1-2,1.64,10.41,10.41,0,0,1-2.53,1.07A10.6,10.6,0,0,1,549,194.61Zm8.23-11.7a9.49,9.49,0,0,0-.83-3.39,9,9,0,0,0-1.81-2.64,8.34,8.34,0,0,0-2.57-1.74,7.84,7.84,0,0,0-3.1-.62,7.92,7.92,0,0,0-3.11.62,8.18,8.18,0,0,0-2.56,1.74,8.56,8.56,0,0,0-1.78,2.66,10.32,10.32,0,0,0-.78,3.37Z"/><path d="M575.51,175a8.38,8.38,0,0,0-4.94,1.68,8.27,8.27,0,0,0-3,4.37v13.12h-2v-21h1.94v5.16a10.24,10.24,0,0,1,2.88-3.61,7.33,7.33,0,0,1,3.86-1.59,6.49,6.49,0,0,1,.72,0h.53Z"/><path d="M581.35,168.47v-3.72h2v3.72Zm0,25.74v-21h2v21Z"/><path d="M596.89,194.61a7.14,7.14,0,0,1-2.71-.51,7.22,7.22,0,0,1-2.2-1.37,5.87,5.87,0,0,1-1.46-2,6.15,6.15,0,0,1-.53-2.56,5,5,0,0,1,.64-2.51,6.3,6.3,0,0,1,1.8-2,8.69,8.69,0,0,1,2.76-1.28,12.81,12.81,0,0,1,3.55-.47,19.73,19.73,0,0,1,3.41.3,17.28,17.28,0,0,1,3.09.83V181a6.53,6.53,0,0,0-1.69-4.74,6.12,6.12,0,0,0-4.6-1.75,9.19,9.19,0,0,0-3.25.64,16.26,16.26,0,0,0-3.49,1.86l-.77-1.37a13.79,13.79,0,0,1,7.67-2.75,8.06,8.06,0,0,1,6,2.2,8.27,8.27,0,0,1,2.18,6.07v10.25c0,.68.29,1,.88,1v1.82l-.42.06-.38,0a1.65,1.65,0,0,1-1.29-.55,2.21,2.21,0,0,1-.57-1.31V190.7a9.42,9.42,0,0,1-3.71,2.9A11.88,11.88,0,0,1,596.89,194.61Zm.4-1.61a10.34,10.34,0,0,0,4.3-.89,7.26,7.26,0,0,0,3-2.34,2.72,2.72,0,0,0,.65-1.62v-3.71a15.43,15.43,0,0,0-3-.84,18.22,18.22,0,0,0-3.26-.29,11.59,11.59,0,0,0-2.87.34,7.78,7.78,0,0,0-2.22.95,4.38,4.38,0,0,0-1.43,1.48,3.71,3.71,0,0,0-.5,1.91,4.9,4.9,0,0,0,.4,2,4.53,4.53,0,0,0,1.13,1.59,5.12,5.12,0,0,0,1.71,1.05A5.74,5.74,0,0,0,597.29,193Z"/><path d="M615.57,164.75h2.06v25.3a2.58,2.58,0,0,0,.66,1.86,2.48,2.48,0,0,0,1.84.68,6.63,6.63,0,0,0,1.07-.1,5.69,5.69,0,0,0,1.15-.3l.4,1.61a8.26,8.26,0,0,1-1.69.47,10.07,10.07,0,0,1-1.74.18,3.69,3.69,0,0,1-2.72-1,3.73,3.73,0,0,1-1-2.76Z"/><path d="M36.14,24.42v96.76c0,7.53,2.25,10.84,8.88,10.84a16.3,16.3,0,0,0,7.82-2v7.83a27.39,27.39,0,0,1-10.08,1.81c-10.69,0-15.35-6.33-15.35-16.1V24.42Z"/><path d="M73.31,25.93a7.3,7.3,0,1,1-7.22,7.37A7.2,7.2,0,0,1,73.31,25.93ZM69.7,57.53h8.73v81.11H69.7Z"/><path d="M101.61,78.15c0-11.29,9.48-21.83,27.09-21.83,8.27,0,17.15,2.87,22.12,7.83l-5.72,6.62c-4.06-4.21-10.84-6.32-16.7-6.32-12.8,0-18.06,6.32-18.06,13.54,0,20,41.68,11.75,41.68,39.43,0,11.29-9.63,22.58-28,22.58-12.34,0-22.12-4.52-27.54-9.78l5.72-6.93c5.27,5.27,12.94,8.58,22.27,8.58,12.49,0,18.81-6.62,18.81-14.45C143.29,97.26,101.61,105.69,101.61,78.15Z"/><path d="M171,24.42h8.73V63.7h.6c2.41-2.11,9.63-6.77,20.77-6.77,16.56,0,30.55,11.28,30.55,38.37,0,26.79-12.64,44.85-39.43,44.85-9.18,0-16.85-1.81-21.22-4.07ZM222.61,97c0-25.12-12.19-32-24.08-32-6.92,0-14.59,3.31-18.81,9v55.53A38.14,38.14,0,0,0,194.17,132C211,132,222.61,120.13,222.61,97Z"/><path d="M304.49,132.77c-5.12,3.61-13.85,6.78-24.38,6.78-22.43,0-34.76-11.14-34.76-41.84,0-30.25,16.85-41.39,33.4-41.39,18.81,0,28.6,12.34,28.6,31.46,0,3.91-.31,9-.76,13.85H254.22c1.21,22,10.24,29.79,27.09,29.79,8,0,15.5-3,19.11-5.87ZM254.22,93.5h44.1c.14-2.11.14-4.22.14-5.42,0-15-6.46-23.63-20.76-23.63C266.86,64.45,255.43,71.08,254.22,93.5Z"/><path d="M329.17,118.33V65.05H316.68V59.33l12.49-1.8L331.58,36h6.32V57.53h22.87v7.52H337.9v52.23c0,10.08,5,14.14,12.64,14.14s11-1.66,12.8-2.71l2.55,7.37c-3.16,1.66-8.28,3.31-16.85,3.31C335.8,139.39,329.17,132.32,329.17,118.33Z"/><path d="M424.86,38.57a33.5,33.5,0,0,0-10.23-1.51c-6.92,0-9.48,3.17-9.48,9.63v8.13h19.56V68.06H404.85v70.58H386.34V68.06H373.4V54.82h13.24V46.39c0-13.55,8.58-24.68,27.69-24.68a49.15,49.15,0,0,1,13.39,1.66Z"/><path d="M482.36,72.43a50.72,50.72,0,0,0-9.48-.9c-7.52,0-15.5,2.86-20,8.27v58.84H434.5V54.82h14.3L452.71,66h.6c3.47-7.38,11-12.79,21.53-12.79a34.32,34.32,0,0,1,7.52.75Z"/><path d="M505.06,20.36c6.77,0,11.59,5,11.59,11.73,0,6.18-4.82,11-11.59,11a11,11,0,0,1-11.14-11C493.92,25.33,498.89,20.36,505.06,20.36Zm-8.73,34.46h18.51v83.82H496.33Z"/><path d="M541.37,20.36c6.77,0,11.58,5,11.58,11.73,0,6.18-4.81,11-11.58,11a11,11,0,0,1-11.14-11C530.23,25.33,535.2,20.36,541.37,20.36Zm-8.73,34.46h18.51v83.82H532.64Z"/><path d="M568,78.29c0-13.09,11.13-25,30.25-25C611.5,53.31,621,58,626.4,64L614.51,76a23.3,23.3,0,0,0-16.71-7.52c-7.52,0-11.43,3.76-11.43,8.72,0,14.9,40.63,9.33,40.63,37.48,0,11.28-9.18,25.43-31.9,25.43-16.86,0-27.69-6.92-32.51-11.89l11.14-13.1A31,31,0,0,0,596,125.1c8.73,0,12.49-4.21,12.49-9.33C608.49,101,568,106.44,568,78.29Z"/></svg>
