<?xml version="1.0" encoding="utf-8"?>
<!-- Generator: Adobe Illustrator 23.0.3, SVG Export Plug-In . SVG Version: 6.00 Build 0)  -->
<svg version="1.1" id="stevnsfort" xmlns="http://www.w3.org/2000/svg" xmlns:xlink="http://www.w3.org/1999/xlink" x="0px" y="0px"
	 viewBox="0 0 512.1 511.4" style="enable-background:new 0 0 512.1 511.4;" xml:space="preserve">
<title>phone</title>
<g id="azvfP1.tif">
	<g>
		<path d="M79.4,26.3c1.5,0.3,2.9,0.5,4.2,0.8c1.6,0.3,4.1,1.3,8.4,5.6c24.6,24.6,49.6,49.6,74.2,74.2c8.7,8.7,8.7,16.9-0.1,25.7
			c-10.1,10.3-20.6,20.6-30.6,30.6l-4.9,4.8c-2.6,2.6-6.3,6.8-8.3,13.4c-2.3,7.5-1.3,15.7,2.7,23c24.2,44.1,46.4,75.6,72.1,102.1
			c25.1,25.8,53.7,47.9,87.4,67.7c6,3.5,12.1,6.9,18,10.2c2.8,1.5,5.5,3.1,8.3,4.7c4,2.2,8.4,3.3,12.7,3.3c6.7,0,13.4-2.6,18.4-7.6
			c3.6-3.6,7.1-7.1,10.7-10.7c8.6-8.6,17.5-17.6,26.3-26.2c0.2-0.2,0.3-0.3,0.5-0.5c1.7-1.8,3.6-3.3,5.7-4.7c3-1.7,5.9-2.6,8.6-2.6
			c3.6,0,7.2,1.7,10.7,5.2c16.6,16.4,33.4,33.2,49.6,49.4c9,9,18.3,18.3,27.4,27.4c1.8,1.8,3.3,4.4,4.7,8.1v5.2
			c-1,3.3-2.3,6.5-3.8,7.9c0,0-0.1,0.1-0.1,0.1c-2,1.9-4,3.8-5.9,5.7c-7.1,6.9-13.9,13.3-20.9,18.5c0,0-0.1,0-0.1,0.1
			c-14,10.4-30.6,16.5-48,17.6c0,0,0,0-0.1,0c-2.6,0.2-5.3,0.3-8,0.3c-14,0-29.3-2.3-48.2-7.3c-40.7-10.7-79.4-29.5-118.2-57.4
			c-64.1-46.1-119.7-103.4-165.4-170.5c-21.4-31.4-34.2-62.1-39.1-93.9c-4-25.8-3-48.8,2.9-70.3c3.3-12.1,9.4-23.9,18.6-36.1
			c5.1-6.7,12.4-13.1,18.9-18.4c1.4-1.1,5.1-2.8,8.2-4.1C77.8,27,78.6,26.7,79.4,26.3 M80.1,0h-2c-2.5,0.6-5.3,0.7-7.6,1.7
			c-6.3,2.9-13,5.4-18.3,9.7C44,18.3,35.7,25.7,29.2,34.2C19,47.7,10.8,62.5,6.2,79.1c-7.3,26.8-7.7,53.9-3.5,81.1
			c5.9,38.4,21.7,72.9,43.3,104.6c46.9,68.9,104,128.2,171.7,176.9c38.6,27.7,80.5,49.2,126.7,61.4c18,4.7,36.3,8.2,54.8,8.2
			c3.2,0,6.5-0.1,9.7-0.3c22.4-1.4,43.9-9.3,61.9-22.7c10.5-7.7,19.7-17.2,29.2-26.2c6.7-6.2,9.6-14.6,12-23.2v-13
			c-2.5-8.4-6-16.1-12.3-22.4c-25.7-25.6-51.3-51.4-77.1-76.9c-8.5-8.4-18.6-12.7-29-12.7c-7.4,0-14.9,2.1-22.2,6.5
			c-3.9,2.5-7.6,5.5-10.8,8.8c-12.4,12.2-24.7,24.7-37.2,37.1c-8.9-5-17.5-9.6-25.9-14.6c-30-17.6-57.6-38.4-81.9-63.4
			c-27.8-28.6-48.9-61.7-67.9-96.4c-1.4-2.6-0.5-3.8,1.1-5.5c11.9-11.8,23.9-23.7,35.7-35.7c18.8-19,18.7-43.5-0.1-62.3
			c-24.7-24.7-49.5-49.5-74.2-74.2c-6.1-6.1-13-10.9-21.6-12.7C85.9,1,83,0.5,80.1,0L80.1,0z"/>
	</g>
</g>
</svg>
